<?xml version="1.0" encoding="utf-8" ?>
<!-- Generator: Assembly 1.0 - http://assemblyapp.co -->
<svg version="1.1" xmlns="http://www.w3.org/2000/svg" xmlns:xlink="http://www.w3.org/1999/xlink" width="300" height="300" viewBox="0 0 300 300">
	<rect x="0" y="0" width="300" height="300" fill="#ffffff" />
	<g id="widget" transform="matrix(1,0,0,1,150,150)">
		<path d="M-173.124,-173.124 L173.124,-173.124 L173.124,173.124 L-173.124,173.124 Z" fill="#09476b" fill-opacity="1" />
		<path d="M0.0983797,-25.0532 C3.29666,-25.0532 6.49495,-23.8539 8.9603,-21.3885 C11.4256,-18.9232 12.625,-15.7249 12.625,-12.5266 L12.625,-12.5266 C12.625,-9.32834 11.4256,-6.13005 8.9603,-3.6647 C6.49495,-1.19936 3.29666,-5.25449e-07 0.0983772,-1.47861e-06 C-3.09991,-2.51121e-06 -6.29819,-1.19936 -8.76354,-3.66471 C-11.2289,-6.13005 -12.4282,-9.32834 -12.4282,-12.5266 L-12.4282,-12.5266 C-12.4282,-15.7249 -11.2289,-18.9232 -8.76354,-21.3885 C-6.43145,-23.8539 -3.23317,-25.0532 0.0983797,-25.0532 Z" fill="#cff09e" fill-opacity="1" />
		<path d="M-44.4429,-39.2108 L-31.5831,-26.351 C-23.2542,-34.6799 -12.1268,-39.2774 -0.266525,-39.1441 C11.5272,-39.0775 22.7212,-34.4133 31.1833,-25.9512 L31.1833,-25.9512 L31.1833,-25.9512 L43.9764,-38.7443 C31.7163,-51.0044 15.7249,-57.1345 -0.333155,-57.2011 C-16.3246,-57.3344 -32.316,-51.3376 -44.4429,-39.2108 Z" fill="#cff09e" fill-opacity="1" />
		<path d="M-66.631,-61.3989 L-53.9045,-48.6724 C-24.187,-78.3898 24.1204,-78.3231 53.8378,-48.6057 L66.631,-61.3989 C48.2408,-79.789 24.187,-88.9175 -2.54177e-06,-88.9841 C-24.1204,-88.9841 -48.2408,-79.789 -66.631,-61.3989 Z" fill="#cff09e" fill-opacity="1" />
		<path d="M-88.5185,1.20992 L-74.5612,1.20992 L-49.1961,45.6744 L-49.1961,1.20992 L-36.7945,1.20992 L-36.7945,64.9035 L-50.1036,64.9035 L-76.1168,19.6612 L-76.1168,64.9035 L-88.5185,64.9035 Z" fill="#cff09e" fill-opacity="1" />
		<path d="M11.9479,1.20992 L27.0287,1.20992 L5.72551,40.9644 L5.72551,64.9035 L-7.5836,64.9035 L-7.5836,40.9644 L-29.6214,1.20992 L-13.9357,1.20992 L-0.712988,28.9516 Z" fill="#cff09e" fill-opacity="1" />
		<path d="M40.8131,7.86447 Q48.5912,0 60.6039,0Q76.6786,0 84.1109,10.5436Q88.216,16.4635 88.5185,22.4267L75.2094,22.4267 Q73.913,17.8463 71.8821,15.5129Q68.2524,11.3646 61.1225,11.3646Q53.863,11.3646 49.6715,17.2197Q45.48,23.0749 45.48,33.7913Q45.48,44.5077 49.9091,49.8443Q54.3383,55.1809 61.1657,55.1809Q68.1659,55.1809 71.8389,50.6005Q73.8698,48.1375 75.2094,43.2114L88.3889,43.2114 Q86.6604,53.6253 79.5521,60.1502Q72.4439,66.6751 61.3385,66.6751Q47.5973,66.6751 39.7329,57.86Q31.8684,49.0017 31.8684,33.5752Q31.8684,16.8956 40.8131,7.86447Z" fill="#cff09e" fill-opacity="1" />
	</g>
</svg>